<svg xmlns="http://www.w3.org/2000/svg" width="216" height="216" viewBox="0 0 216 216">
  <g id="botao-family" transform="translate(-407 -994)">
    <g id="iconeIdades" transform="translate(407 994)" stroke="#fec82a" stroke-width="4">
      <rect width="216" height="216" rx="25" stroke="none"/>
      <rect x="2" y="2" width="212" height="212" rx="23" fill="none"/>
    </g>
    <g id="familia" transform="translate(422.96 1010)">
      <path id="Path_14" data-name="Path 14" d="M64.465,101.246a2.7,2.7,0,0,0,.254-5.394L57.7,95.181a17.167,17.167,0,0,1,.124-4.707,19.245,19.245,0,0,0,2.038-1.447c11.474-9.283,17.051-17.348,17.051-24.656,0-.748-.031-1.5-.092-2.237,0-.014,0-.028,0-.042-.069-.7-.114-2.16-.142-4.062H79.1A9.259,9.259,0,0,0,86.2,42.822c1.558-8.608,1.277-17.129-.792-23.545C82.827,10.906,74.972,4.9,62.691,1.9,46.962-1.952,27.429-.536,21.7,11.672a12.123,12.123,0,0,0-8.557,4.93C8.518,22.782,8.309,33.627,9.72,42.277a9.259,9.259,0,0,0,6.6,15.754h2.222c-.046,1.914-.107,3.376-.179,4.105-.062.7-.093,1.449-.093,2.235,0,7.306,5.575,15.368,17.037,24.643a19.3,19.3,0,0,0,1.928,1.38,17.082,17.082,0,0,1,.137,4.8l-27,2.76A11.632,11.632,0,0,0,.04,109.581v72.251a2.7,2.7,0,0,0,5.405,0V109.567a6.231,6.231,0,0,1,5.508-6.239l26.3-2.688a10.7,10.7,0,0,0,20.573-.017l6.38.61c.088.009.175.013.261.013Zm18.49-52.478A3.859,3.859,0,0,1,79.1,52.625H76.633c-.008-2.515-.005-5.212,0-7.714H79.1a3.859,3.859,0,0,1,3.853,3.857ZM18.624,52.625H16.318a3.857,3.857,0,0,1,0-7.714H18.64c.012,2.608.005,5.271-.017,7.714Zm28.912,50.363A5.3,5.3,0,0,1,42.259,98.1a17.1,17.1,0,0,0,.618-5.3,19.342,19.342,0,0,0,4.671.575h.088a19.332,19.332,0,0,0,4.557-.547,17.071,17.071,0,0,0,.619,5.273,5.3,5.3,0,0,1-5.276,4.893Zm.088-15.024H47.56a14.057,14.057,0,0,1-8.85-3.146c-9.838-7.961-15.038-15.031-15.038-20.446,0-.628.024-1.219.07-1.731.3-3.063.383-15.933.236-23.952a4.423,4.423,0,0,1,2.379-4.031,29.351,29.351,0,0,1,4.074-1.391,2.7,2.7,0,1,0-1.4-5.22,34.552,34.552,0,0,0-4.915,1.693c-.04.018-.08.037-.12.056a9.84,9.84,0,0,0-5.419,9.014q.006.344.012.7H16.317a9.293,9.293,0,0,0-1.522.125c-.9-6.957-.652-15.343,2.676-19.79a6.7,6.7,0,0,1,4.963-2.81,5.151,5.151,0,0,0,4.178-3.1c2.519-5.309,8.983-7.3,13.969-8.034A56.625,56.625,0,0,1,61.407,7.15C68.612,8.908,77.728,12.715,80.248,20.9c1.65,5.118,1.981,11.843.971,18.849a9.257,9.257,0,0,0-2.117-.244H76.642q0-.361,0-.713a9.814,9.814,0,0,0-5.476-9.008l-.091-.043c-6.788-3.019-18.09-4.418-29.5-3.649a2.7,2.7,0,0,0,.363,5.393c10.393-.7,20.936.545,26.887,3.173a4.4,4.4,0,0,1,2.41,4.03c0,.023,0,.053,0,.076l.2,23.834c.048.582.072,1.178.072,1.772,0,5.417-5.2,12.49-15.05,20.457a14.043,14.043,0,0,1-8.835,3.134Z" fill="#fec82a"/>
      <path id="Path_15" data-name="Path 15" d="M344.225,111.343l-27.11-2.938a2.723,2.723,0,0,0-.635.005,17.273,17.273,0,0,1,.143-4.546,19.252,19.252,0,0,0,2.038-1.447c11.474-9.283,17.051-17.348,17.051-24.656,0-.748-.031-1.5-.092-2.236,0-.014,0-.028,0-.042-.069-.7-.113-2.16-.142-4.062H337.9a9.263,9.263,0,0,0,0-18.525h-2.461c0-.2,0-.407,0-.606V46.143a2.7,2.7,0,0,0-5.405,0v3.915a21.444,21.444,0,0,1-3.359.264,21.171,21.171,0,0,1-17.892-9.795,2.7,2.7,0,0,0-2.271-1.244h-.361a2.7,2.7,0,0,0-2.267,1.244,21.171,21.171,0,0,1-17.892,9.794,21.468,21.468,0,0,1-3.213-.241V32.834a10.166,10.166,0,0,1,10.151-10.159h26.233a10.888,10.888,0,0,1,10.871,10.88,2.7,2.7,0,0,0,5.405,0,16.31,16.31,0,0,0-13.574-16.061V15.9a15.819,15.819,0,1,0-31.638,0V17.5a15.587,15.587,0,0,0-12.853,15.329V52.287c0,.007,0,.014,0,.021v.027l.01.56h-2.269a9.263,9.263,0,0,0,0,18.525h2.221c-.046,1.916-.106,3.379-.178,4.1-.062.7-.094,1.448-.094,2.236,0,7.306,5.575,15.368,17.038,24.643a19.244,19.244,0,0,0,1.928,1.38,14.386,14.386,0,0,1-.213,6.324,2.7,2.7,0,0,0-.18.97,10.7,10.7,0,0,0,21.046,2.716l26.946,2.92a6.241,6.241,0,0,1,5.539,6.256v58.911a2.7,2.7,0,1,0,5.405,0v-58.9a11.64,11.64,0,0,0-10.349-11.642ZM335.43,58.3H337.9a3.857,3.857,0,0,1,0,7.714h-2.47C335.423,63.5,335.425,60.8,335.43,58.3Zm-39.8-42.4a10.414,10.414,0,1,1,20.827,0v1.37H295.633ZM277.42,66.016h-2.305a3.857,3.857,0,0,1,0-7.714h2.322C277.449,60.907,277.442,63.571,277.42,66.016Zm28.914,50.363a5.3,5.3,0,0,1-5.276-4.892,17.1,17.1,0,0,0,.618-5.3,19.331,19.331,0,0,0,4.672.575h.086a19.341,19.341,0,0,0,4.559-.547,17.07,17.07,0,0,0,.619,5.273A5.3,5.3,0,0,1,306.334,116.378Zm.087-15.024h-.035a14.149,14.149,0,0,1-8.877-3.147c-9.838-7.961-15.038-15.031-15.038-20.446,0-.628.024-1.219.07-1.731.259-2.637.356-12.68.283-20.49a26.856,26.856,0,0,0,3.169.187,26.527,26.527,0,0,0,20.342-9.434,26.527,26.527,0,0,0,20.342,9.434,26.831,26.831,0,0,0,3.354-.21q0,.438,0,.883c-.015,8.017-.033,17.1.207,19.591.048.582.072,1.178.072,1.77,0,5.417-5.2,12.49-15.05,20.458A14.037,14.037,0,0,1,306.421,101.355Z" transform="translate(-170.028 -0.051)" fill="#fec82a"/>
      <path id="Path_16" data-name="Path 16" d="M210.224,302.088h-4.493a16.9,16.9,0,0,1,.205-4.809c6.78-5.816,10.083-10.992,10.083-15.784,0-.524-.022-1.051-.064-1.565,0-.014,0-.028,0-.042-.026-.261-.046-.695-.063-1.258h.01a7.443,7.443,0,1,0,.074-14.887h-.146a20.156,20.156,0,0,0-1.344-6.61,2.7,2.7,0,1,0-5.042,1.948,14.792,14.792,0,0,1,.993,5.354l.137,15.96c.03.36.044.73.044,1.1,0,3.279-3.44,7.867-9.691,12.925a8.445,8.445,0,0,1-5.318,1.886h-.038a8.458,8.458,0,0,1-5.327-1.895c-6.243-5.052-9.681-9.639-9.681-12.916,0-.392.015-.758.042-1.064.206-2.1.223-11.015.144-16.014a14.865,14.865,0,0,1,14.844-14.835,14.656,14.656,0,0,1,6.915,1.707,2.7,2.7,0,1,0,2.524-4.78,20.253,20.253,0,0,0-29.676,17.235h-.161a7.443,7.443,0,1,0,.074,14.886h.023c-.02.59-.043,1.036-.069,1.3-.044.49-.066,1.018-.066,1.569,0,4.794,3.306,9.973,10.089,15.788a16.9,16.9,0,0,1,.2,4.8h-4a19.557,19.557,0,0,0-19.53,19.541v16.388a2.7,2.7,0,0,0,5.405,0V321.628a14.146,14.146,0,0,1,14.124-14.135h3.791a10.7,10.7,0,0,0,20.7,0h4.284a14.145,14.145,0,0,1,14.124,14.135v16.388a2.7,2.7,0,0,0,5.405,0V321.628a19.557,19.557,0,0,0-19.529-19.54Zm5.606-32.938h.142a2.029,2.029,0,0,1,1.6.778,2.034,2.034,0,0,1-1.676,3.3h-.068C215.826,271.889,215.828,270.488,215.829,269.15Zm-40.454,4.075h-.111a2.033,2.033,0,0,1-1.676-3.3,2.029,2.029,0,0,1,1.6-.778h.191c0,1.386,0,2.774-.007,4.075Zm20.213,36.864a5.3,5.3,0,0,1-5.276-4.892,15.916,15.916,0,0,0,.619-4.286,13.811,13.811,0,0,0,4.623.8h.062a13.823,13.823,0,0,0,4.63-.8,15.892,15.892,0,0,0,.619,4.287,5.3,5.3,0,0,1-5.277,4.892Z" transform="translate(-103.542 -156.185)" fill="#fec82a"/>
      <path id="Path_17" data-name="Path 17" d="M122.586,187.118a2.7,2.7,0,0,0-2.7,2.7,3.083,3.083,0,1,1-6.166,0,2.7,2.7,0,1,0-5.405,0,8.489,8.489,0,1,0,16.977,0A2.7,2.7,0,0,0,122.586,187.118Z" transform="translate(-69.255 -119.688)" fill="#fec82a"/>
      <path id="Path_18" data-name="Path 18" d="M117.981,160.449a2.7,2.7,0,0,0,3.646-1.147.6.6,0,0,1,1.07,0,2.7,2.7,0,0,0,4.794-2.5,6.009,6.009,0,0,0-10.657,0A2.7,2.7,0,0,0,117.981,160.449Z" transform="translate(-74.51 -98.23)" fill="#fec82a"/>
      <path id="Path_19" data-name="Path 19" d="M368.921,224.135a2.7,2.7,0,0,0-2.7,2.7,3.083,3.083,0,1,1-6.167,0,2.7,2.7,0,1,0-5.405,0,8.489,8.489,0,1,0,16.977,0A2.7,2.7,0,0,0,368.921,224.135Z" transform="translate(-226.82 -143.366)" fill="#fec82a"/>
      <path id="Path_20" data-name="Path 20" d="M364.318,197.467a2.7,2.7,0,0,0,3.646-1.148.6.6,0,0,1,1.07,0,2.7,2.7,0,0,0,4.794-2.5,6.009,6.009,0,0,0-10.657,0A2.7,2.7,0,0,0,364.318,197.467Z" transform="translate(-232.077 -121.908)" fill="#fec82a"/>
      <path id="Path_21" data-name="Path 21" d="M57.734,333.058a2.7,2.7,0,0,0-2.7,2.7v59.107a2.7,2.7,0,0,0,5.405,0V335.761A2.7,2.7,0,0,0,57.734,333.058Z" transform="translate(-35.175 -213.037)" fill="#fec82a"/>
      <path id="Path_22" data-name="Path 22" d="M444.753,370.075a2.7,2.7,0,0,0-2.7,2.7v45.768a2.7,2.7,0,0,0,5.405,0V372.778A2.7,2.7,0,0,0,444.753,370.075Z" transform="translate(-282.727 -236.715)" fill="#fec82a"/>
      <path id="Path_23" data-name="Path 23" d="M204.611,461.608a2.7,2.7,0,0,0-2.7,2.7v12.783a2.7,2.7,0,0,0,5.405,0V464.311a2.7,2.7,0,0,0-2.7-2.7Z" transform="translate(-129.123 -295.263)" fill="#fec82a"/>
      <path id="Path_24" data-name="Path 24" d="M298.66,461.608a2.7,2.7,0,0,0-2.7,2.7v12.783a2.7,2.7,0,1,0,5.405,0V464.311a2.7,2.7,0,0,0-2.7-2.7Z" transform="translate(-189.28 -295.263)" fill="#fec82a"/>
      <path id="Path_25" data-name="Path 25" d="M245.889,345.353a.6.6,0,0,1-1.07,0,2.7,2.7,0,1,0-4.794,2.5,6.009,6.009,0,0,0,10.657,0,2.7,2.7,0,1,0-4.794-2.5Z" transform="translate(-153.308 -219.971)" fill="#fec82a"/>
    </g>
  </g>
</svg>
