<svg xmlns="http://www.w3.org/2000/svg" width="216" height="216" viewBox="0 0 216 216">
  <g id="botao-play" transform="translate(16 16)">
    <g id="iconeInscricoes" transform="translate(-16 -16)" stroke="#fec82a" stroke-width="4">
      <rect width="216" height="216" rx="25" stroke="none"/>
      <rect x="2" y="2" width="212" height="212" rx="23" fill="none"/>
    </g>
    <g id="Group_2" data-name="Group 2">
      <g id="Group_1" data-name="Group 1">
        <path id="Path_26" data-name="Path 26" d="M157.513,27.021a92.283,92.283,0,1,0,27.021,65.246A91.978,91.978,0,0,0,157.513,27.021ZM149.6,149.6a81.146,81.146,0,0,1-114.675,0A81.6,81.6,0,0,1,11.2,92.267a81.063,81.063,0,1,1,162.127,0A81.6,81.6,0,0,1,149.6,149.6Z" fill="#fec82a"/>
      </g>
    </g>
    <g id="Group_4" data-name="Group 4" transform="translate(55.141 42.057)">
      <g id="Group_3" data-name="Group 3">
        <path id="Path_27" data-name="Path 27" d="M188.713,120.2a25.239,25.239,0,0,1-1.757-2.2l-.439-.439a7.89,7.89,0,0,0-2.2-1.538L151.806,97.35a.215.215,0,0,1-.22-.22L118.853,78.238a12.4,12.4,0,0,0-9.227-1.318,12.872,12.872,0,0,0-7.469,5.712,16.564,16.564,0,0,0-1.318,2.856c-.22.659-.22,1.538-.439,2.417v76.67a12,12,0,0,0,12.083,12.083A9.949,9.949,0,0,0,116,176a13.421,13.421,0,0,0,3.076-1.538l32.294-18.673.439-.22,32.513-18.673c.22,0,.22-.22.439-.22a12.346,12.346,0,0,0,5.272-7.25A11.459,11.459,0,0,0,188.713,120.2Zm-9.446,6.81a.473.473,0,0,1-.439.439h-.22L146.314,146.34l-.22.22L113.8,165.232c-.22,0-.22.22-.439.22a.215.215,0,0,0-.22.22h-.22c-.22,0-.439-.22-.659-.22a.807.807,0,0,1-.22-.659V88.563c.22-.22.439-.439.659-.439h.659L145.875,106.8l.22.22,32.733,18.893.22.22.22.22Q179.267,126.678,179.267,127.007Z" transform="translate(-100.4 -76.578)" fill="#fec82a"/>
      </g>
    </g>
  </g>
</svg>
