<svg xmlns="http://www.w3.org/2000/svg" width="41" height="40" viewBox="0 0 41 40">
  <g id="insta" transform="translate(-60.656 -43)">
    <g id="Rectangle_7" data-name="Rectangle 7" transform="translate(60.656 43)" stroke="#fec82a" stroke-width="2">
      <rect width="41" height="40" rx="5" stroke="none"/>
      <rect x="1" y="1" width="39" height="38" rx="4" fill="none"/>
    </g>
    <path id="instagram-brands" d="M15.655,39.486a8.063,8.063,0,1,0,8.063,8.063A8.05,8.05,0,0,0,15.655,39.486Zm0,13.3A5.242,5.242,0,1,1,20.9,47.548a5.251,5.251,0,0,1-5.242,5.242ZM25.928,39.156a1.881,1.881,0,1,1-1.881-1.881A1.876,1.876,0,0,1,25.928,39.156Zm5.34,1.909a9.306,9.306,0,0,0-2.54-6.589,9.368,9.368,0,0,0-6.589-2.54c-2.6-.147-10.378-.147-12.974,0a9.354,9.354,0,0,0-6.589,2.533,9.337,9.337,0,0,0-2.54,6.589c-.147,2.6-.147,10.378,0,12.974a9.306,9.306,0,0,0,2.54,6.589,9.38,9.38,0,0,0,6.589,2.54c2.6.147,10.378.147,12.974,0a9.306,9.306,0,0,0,6.589-2.54,9.368,9.368,0,0,0,2.54-6.589C31.415,51.436,31.415,43.661,31.268,41.065ZM27.914,56.818a5.307,5.307,0,0,1-2.989,2.989c-2.07.821-6.982.632-9.269.632s-7.206.182-9.269-.632A5.307,5.307,0,0,1,3.4,56.818c-.821-2.07-.632-6.982-.632-9.269s-.182-7.206.632-9.269A5.307,5.307,0,0,1,6.386,35.29c2.07-.821,6.982-.632,9.269-.632s7.206-.182,9.269.632a5.307,5.307,0,0,1,2.989,2.989c.821,2.07.632,6.982.632,9.269S28.735,54.755,27.914,56.818Z" transform="translate(65.731 15.175)" fill="#fec82a"/>
  </g>
</svg>
